<svg width="24" height="32" viewBox="0 0 24 32" fill="none" xmlns="http://www.w3.org/2000/svg">
<path d="M12 13.75C13.335 13.75 14.6401 13.3541 15.7501 12.6124C16.8601 11.8707 17.7253 10.8165 18.2362 9.58312C18.7471 8.34972 18.8808 6.99252 18.6203 5.68314C18.3599 4.37377 17.717 3.17104 16.773 2.22703C15.829 1.28303 14.6262 0.640153 13.3169 0.379702C12.0075 0.119252 10.6503 0.252925 9.41689 0.763816C8.18349 1.27471 7.12928 2.13987 6.38758 3.2499C5.64588 4.35994 5.25 5.66498 5.25 7C5.25 8.79021 5.96116 10.5071 7.22703 11.773C8.4929 13.0388 10.2098 13.75 12 13.75ZM12 2.5C12.89 2.5 13.76 2.76392 14.5001 3.25839C15.2401 3.75286 15.8169 4.45566 16.1575 5.27793C16.4981 6.1002 16.5872 7.00499 16.4135 7.87791C16.2399 8.75082 15.8113 9.55265 15.182 10.182C14.5526 10.8113 13.7508 11.2399 12.8779 11.4135C12.005 11.5872 11.1002 11.4981 10.2779 11.1575C9.45566 10.8169 8.75285 10.2401 8.25839 9.50007C7.76392 8.76005 7.5 7.89002 7.5 7C7.5 5.80653 7.97411 4.66194 8.81802 3.81802C9.66193 2.97411 10.8065 2.5 12 2.5ZM12 16C9.01631 16 6.15483 17.1853 4.04505 19.2951C1.93526 21.4048 0.75 24.2663 0.75 27.25V30.625C0.75 30.9234 0.868527 31.2095 1.07951 31.4205C1.29048 31.6315 1.57663 31.75 1.875 31.75C2.17337 31.75 2.45952 31.6315 2.67049 31.4205C2.88147 31.2095 3 30.9234 3 30.625V27.25C3 24.8631 3.94821 22.5739 5.63604 20.886C7.32387 19.1982 9.61305 18.25 12 18.25C14.3869 18.25 16.6761 19.1982 18.364 20.886C20.0518 22.5739 21 24.8631 21 27.25V30.625C21 30.9234 21.1185 31.2095 21.3295 31.4205C21.5405 31.6315 21.8266 31.75 22.125 31.75C22.4234 31.75 22.7095 31.6315 22.9205 31.4205C23.1315 31.2095 23.25 30.9234 23.25 30.625V27.25C23.25 24.2663 22.0647 21.4048 19.955 19.2951C17.8452 17.1853 14.9837 16 12 16Z" fill="white" fill-opacity="0.91"/>
</svg>
