<svg width="296" height="330" viewBox="0 0 296 330" fill="none" xmlns="http://www.w3.org/2000/svg">
<path d="M295.958 214.25C295.922 204.395 292.93 194.778 287.369 186.642C281.809 178.506 273.935 172.225 264.767 168.612L295.466 53.695C296.107 51.2476 296.174 48.6851 295.662 46.2076C295.149 43.73 294.071 41.4045 292.511 39.4125C290.916 37.546 288.923 36.0609 286.679 35.0665C284.434 34.0722 281.996 33.5938 279.542 33.6667H54.6334L49.2158 12.9817C48.274 9.48347 46.2014 6.39506 43.321 4.1977C40.4407 2.00034 36.9144 0.817449 33.2917 0.833349H0.458344V33.6667H20.6508L61.3642 185.685C62.3262 189.267 64.4725 192.417 67.4535 194.623C70.4345 196.829 74.0746 197.96 77.7809 197.833H246.708C251.062 197.833 255.238 199.563 258.317 202.642C261.395 205.72 263.125 209.896 263.125 214.25C263.125 218.604 261.395 222.78 258.317 225.858C255.238 228.937 251.062 230.667 246.708 230.667H33.2917C28.9377 230.667 24.7621 232.396 21.6833 235.475C18.6046 238.554 16.875 242.729 16.875 247.083C16.875 251.437 18.6046 255.613 21.6833 258.692C24.7621 261.77 28.9377 263.5 33.2917 263.5H52.6633C49.9634 270.939 49.0958 278.919 50.134 286.764C51.1723 294.61 54.0858 302.089 58.6278 308.57C63.1699 315.05 69.2067 320.341 76.2271 323.993C83.2474 327.646 91.0446 329.553 98.9584 329.553C106.872 329.553 114.669 327.646 121.69 323.993C128.71 320.341 134.747 315.05 139.289 308.57C143.831 302.089 146.744 294.61 147.783 286.764C148.821 278.919 147.953 270.939 145.253 263.5H183.997C181.539 270.274 180.597 277.504 181.239 284.681C181.88 291.858 184.088 298.807 187.708 305.038C191.327 311.269 196.27 316.629 202.187 320.741C208.104 324.854 214.852 327.617 221.953 328.838C229.055 330.058 236.338 329.705 243.288 327.803C250.239 325.902 256.687 322.499 262.179 317.834C267.67 313.169 272.072 307.355 275.072 300.804C278.072 294.252 279.598 287.122 279.542 279.917C279.511 271.435 277.246 263.112 272.975 255.784C279.995 251.358 285.783 245.23 289.801 237.969C293.819 230.708 295.937 222.549 295.958 214.25ZM231.769 165H90.75L63.4984 66.5H258.2L231.769 165ZM98.9584 296.333C95.7114 296.333 92.5374 295.371 89.8377 293.567C87.138 291.763 85.0339 289.199 83.7913 286.199C82.5488 283.199 82.2237 279.898 82.8571 276.714C83.4906 273.529 85.0541 270.604 87.35 268.308C89.6459 266.012 92.5711 264.449 95.7556 263.815C98.9401 263.182 102.241 263.507 105.241 264.75C108.24 265.992 110.804 268.096 112.608 270.796C114.412 273.496 115.375 276.67 115.375 279.917C115.375 284.271 113.645 288.446 110.567 291.525C107.488 294.604 103.312 296.333 98.9584 296.333ZM230.292 296.333C227.045 296.333 223.871 295.371 221.171 293.567C218.471 291.763 216.367 289.199 215.125 286.199C213.882 283.199 213.557 279.898 214.19 276.714C214.824 273.529 216.387 270.604 218.683 268.308C220.979 266.012 223.904 264.449 227.089 263.815C230.273 263.182 233.574 263.507 236.574 264.75C239.574 265.992 242.138 268.096 243.942 270.796C245.746 273.496 246.708 276.67 246.708 279.917C246.708 284.271 244.979 288.446 241.9 291.525C238.821 294.604 234.646 296.333 230.292 296.333Z" fill="white" fill-opacity="0.11"/>
</svg>
