<svg width="50" height="59" viewBox="0 0 50 59" fill="none" xmlns="http://www.w3.org/2000/svg">
<g filter="url(#filter0_diiiif_99_22)">
<path d="M45.2705 34.3749C45.2654 32.9993 44.8478 31.6568 44.0715 30.521C43.2953 29.3853 42.1962 28.5085 40.9163 28.0041L45.2018 11.9624C45.2913 11.6208 45.3006 11.2631 45.2291 10.9172C45.1575 10.5714 45.007 10.2468 44.7893 9.96869C44.5667 9.70814 44.2885 9.50083 43.9752 9.36202C43.6618 9.22321 43.3214 9.15643 42.9788 9.16661H11.583L10.8268 6.27911C10.6953 5.79078 10.406 5.35966 10.0039 5.05292C9.6018 4.74618 9.10956 4.58105 8.60384 4.58327H4.02051V9.16661H6.83926L12.5226 30.3874C12.6569 30.8874 12.9565 31.3272 13.3726 31.6351C13.7888 31.943 14.2969 32.101 14.8143 32.0833H38.3955C39.0033 32.0833 39.5862 32.3247 40.016 32.7545C40.4457 33.1843 40.6872 33.7672 40.6872 34.3749C40.6872 34.9827 40.4457 35.5656 40.016 35.9954C39.5862 36.4252 39.0033 36.6666 38.3955 36.6666H8.60384C7.99605 36.6666 7.41316 36.9081 6.98339 37.3378C6.55362 37.7676 6.31217 38.3505 6.31217 38.9583C6.31217 39.5661 6.55362 40.149 6.98339 40.5787C7.41316 41.0085 7.99605 41.2499 8.60384 41.2499H11.308C10.9311 42.2884 10.81 43.4023 10.9549 44.4975C11.0999 45.5926 11.5066 46.6367 12.1406 47.5414C12.7747 48.446 13.6174 49.1846 14.5974 49.6944C15.5774 50.2043 16.6658 50.4705 17.7705 50.4705C18.8752 50.4705 19.9637 50.2043 20.9437 49.6944C21.9237 49.1846 22.7664 48.446 23.4004 47.5414C24.0344 46.6367 24.4412 45.5926 24.5861 44.4975C24.731 43.4023 24.6099 42.2884 24.233 41.2499H29.6413C29.2982 42.1955 29.1668 43.2048 29.2563 44.2067C29.3458 45.2086 29.6541 46.1786 30.1594 47.0484C30.6646 47.9182 31.3546 48.6665 32.1806 49.2405C33.0066 49.8145 33.9485 50.2003 34.9398 50.3707C35.9312 50.541 36.9478 50.4917 37.9181 50.2263C38.8883 49.9609 39.7885 49.4858 40.5551 48.8346C41.3217 48.1834 41.9361 47.3719 42.3549 46.4573C42.7736 45.5428 42.9866 44.5475 42.9788 43.5416C42.9746 42.3577 42.6584 41.1957 42.0622 40.1729C43.0421 39.555 43.8501 38.6996 44.411 37.6859C44.9719 36.6723 45.2675 35.5334 45.2705 34.3749ZM36.3101 27.4999H16.6247L12.8205 13.7499H39.9997L36.3101 27.4999ZM17.7705 45.8333C17.3173 45.8333 16.8742 45.6989 16.4973 45.4471C16.1205 45.1953 15.8267 44.8373 15.6533 44.4186C15.4798 43.9998 15.4345 43.5391 15.5229 43.0945C15.6113 42.65 15.8296 42.2416 16.1501 41.9212C16.4706 41.6007 16.8789 41.3824 17.3234 41.294C17.768 41.2056 18.2287 41.2509 18.6475 41.4244C19.0662 41.5978 19.4241 41.8916 19.676 42.2684C19.9278 42.6453 20.0622 43.0884 20.0622 43.5416C20.0622 44.1494 19.8207 44.7323 19.391 45.1621C18.9612 45.5918 18.3783 45.8333 17.7705 45.8333ZM36.1038 45.8333C35.6506 45.8333 35.2075 45.6989 34.8307 45.4471C34.4538 45.1953 34.1601 44.8373 33.9866 44.4186C33.8132 43.9998 33.7678 43.5391 33.8562 43.0945C33.9446 42.65 34.1629 42.2416 34.4834 41.9212C34.8039 41.6007 35.2122 41.3824 35.6568 41.294C36.1013 41.2056 36.5621 41.2509 36.9808 41.4244C37.3996 41.5978 37.7575 41.8916 38.0093 42.2684C38.2611 42.6453 38.3955 43.0884 38.3955 43.5416C38.3955 44.1494 38.1541 44.7323 37.7243 45.1621C37.2945 45.5918 36.7116 45.8333 36.1038 45.8333Z" fill="white"/>
</g>
<defs>
<filter id="filter0_diiiif_99_22" x="0.0205078" y="0.583252" width="49.2559" height="57.8872" filterUnits="userSpaceOnUse" color-interpolation-filters="sRGB">
<feFlood flood-opacity="0" result="BackgroundImageFix"/>
<feColorMatrix in="SourceAlpha" type="matrix" values="0 0 0 0 0 0 0 0 0 0 0 0 0 0 0 0 0 0 127 0" result="hardAlpha"/>
<feOffset dy="4"/>
<feGaussianBlur stdDeviation="2"/>
<feComposite in2="hardAlpha" operator="out"/>
<feColorMatrix type="matrix" values="0 0 0 0 0 0 0 0 0 0 0 0 0 0 0 0 0 0 0.25 0"/>
<feBlend mode="normal" in2="BackgroundImageFix" result="effect1_dropShadow_99_22"/>
<feBlend mode="normal" in="SourceGraphic" in2="effect1_dropShadow_99_22" result="shape"/>
<feColorMatrix in="SourceAlpha" type="matrix" values="0 0 0 0 0 0 0 0 0 0 0 0 0 0 0 0 0 0 127 0" result="hardAlpha"/>
<feOffset dy="4"/>
<feGaussianBlur stdDeviation="2"/>
<feComposite in2="hardAlpha" operator="arithmetic" k2="-1" k3="1"/>
<feColorMatrix type="matrix" values="0 0 0 0 0 0 0 0 0 0 0 0 0 0 0 0 0 0 0.25 0"/>
<feBlend mode="normal" in2="shape" result="effect2_innerShadow_99_22"/>
<feColorMatrix in="SourceAlpha" type="matrix" values="0 0 0 0 0 0 0 0 0 0 0 0 0 0 0 0 0 0 127 0" result="hardAlpha"/>
<feOffset dy="4"/>
<feGaussianBlur stdDeviation="2"/>
<feComposite in2="hardAlpha" operator="arithmetic" k2="-1" k3="1"/>
<feColorMatrix type="matrix" values="0 0 0 0 0 0 0 0 0 0 0 0 0 0 0 0 0 0 0.25 0"/>
<feBlend mode="normal" in2="effect2_innerShadow_99_22" result="effect3_innerShadow_99_22"/>
<feColorMatrix in="SourceAlpha" type="matrix" values="0 0 0 0 0 0 0 0 0 0 0 0 0 0 0 0 0 0 127 0" result="hardAlpha"/>
<feOffset dy="4"/>
<feGaussianBlur stdDeviation="2"/>
<feComposite in2="hardAlpha" operator="arithmetic" k2="-1" k3="1"/>
<feColorMatrix type="matrix" values="0 0 0 0 0 0 0 0 0 0 0 0 0 0 0 0 0 0 0.25 0"/>
<feBlend mode="normal" in2="effect3_innerShadow_99_22" result="effect4_innerShadow_99_22"/>
<feColorMatrix in="SourceAlpha" type="matrix" values="0 0 0 0 0 0 0 0 0 0 0 0 0 0 0 0 0 0 127 0" result="hardAlpha"/>
<feOffset dy="4"/>
<feGaussianBlur stdDeviation="2"/>
<feComposite in2="hardAlpha" operator="arithmetic" k2="-1" k3="1"/>
<feColorMatrix type="matrix" values="0 0 0 0 0 0 0 0 0 0 0 0 0 0 0 0 0 0 0.25 0"/>
<feBlend mode="normal" in2="effect4_innerShadow_99_22" result="effect5_innerShadow_99_22"/>
<feGaussianBlur stdDeviation="2" result="effect6_foregroundBlur_99_22"/>
</filter>
</defs>
</svg>
